<?xml version="1.0" standalone="no"?>
<!DOCTYPE svg PUBLIC "-//W3C//DTD SVG 20010904//EN"
 "http://www.w3.org/TR/2001/REC-SVG-20010904/DTD/svg10.dtd">
<svg version="1.0" xmlns="http://www.w3.org/2000/svg"
 width="232.000000pt" height="555.000000pt" viewBox="0 0 232.000000 555.000000"
 preserveAspectRatio="xMidYMid meet">

<g transform="translate(0.000000,555.000000) scale(0.100000,-0.100000)"
fill="#fff" stroke="none">
<path d="M1970 5218 c-118 -149 -289 -359 -379 -467 -320 -382 -558 -689 -701
-903 -36 -54 -68 -97 -72 -98 -14 0 -8 41 17 124 36 122 167 597 219 796 87
335 142 655 125 730 -10 46 -53 80 -100 80 -77 0 -284 -170 -450 -369 -286
-343 -482 -788 -454 -1035 17 -150 109 -277 202 -276 26 1 25 2 -10 14 -53 19
-73 40 -110 115 -30 62 -32 72 -32 176 1 129 20 207 91 370 150 341 424 709
659 883 68 50 134 86 143 78 8 -8 3 -100 -9 -176 -39 -246 -98 -493 -235 -975
-48 -170 -92 -329 -97 -352 -6 -24 -13 -43 -16 -43 -7 0 -141 323 -141 339 0
6 -7 11 -15 11 -8 0 -15 -1 -15 -3 0 -9 54 -157 99 -272 28 -71 51 -139 51
-149 0 -11 -20 -94 -44 -185 -25 -91 -63 -240 -86 -331 -23 -91 -58 -219 -79
-285 -21 -66 -41 -139 -45 -163 -6 -39 -4 -43 20 -52 37 -15 43 -13 54 15 5
14 37 144 70 288 74 321 80 340 143 451 l50 88 92 -183 c146 -292 204 -377
287 -420 74 -38 119 -20 241 99 91 90 190 220 334 442 169 259 415 679 409
696 -7 17 -30 18 -44 2 -5 -7 -76 -123 -157 -258 -355 -588 -584 -896 -700
-940 -45 -17 -90 -12 -112 13 -43 46 -114 169 -217 375 l-107 213 87 127 c158
231 317 436 724 932 149 182 352 439 528 667 33 44 40 58 31 69 -6 8 -17 14
-23 14 -6 -1 -108 -123 -226 -272z m-1183 -1520 c-3 -8 -6 -5 -6 6 -1 11 2 17
5 13 3 -3 4 -12 1 -19z"/>
<path d="M1906 3313 c-8 -27 -43 -207 -57 -295 l-13 -77 -40 -5 c-23 -3 -90
-8 -151 -11 -117 -6 -140 -15 -113 -42 19 -19 74 -22 202 -10 l89 8 -7 -53
c-30 -240 -30 -248 3 -248 20 0 24 15 52 218 l11 82 174 0 c96 0 174 4 174 8
0 5 -9 17 -21 28 -18 16 -41 19 -165 22 l-144 4 0 27 c0 14 9 87 20 161 24
165 25 200 6 200 -8 0 -17 -8 -20 -17z"/>
<path d="M1740 2409 c-76 -43 -325 -296 -432 -439 -203 -272 -354 -520 -558
-915 -78 -152 -144 -274 -147 -271 -9 9 44 230 153 638 138 521 148 569 149
745 l0 142 -29 30 c-16 17 -49 38 -72 47 -39 15 -47 15 -88 1 -105 -36 -282
-187 -378 -322 -139 -196 -241 -493 -241 -705 -1 -147 36 -249 103 -285 8 -5
5 3 -8 17 -52 57 -72 205 -48 348 54 310 226 627 428 788 87 69 190 124 225
120 25 -3 29 -8 37 -53 11 -60 -6 -238 -34 -364 -11 -47 -44 -178 -75 -291
-145 -535 -204 -792 -221 -951 l-6 -66 30 -12 c17 -7 36 -10 41 -6 6 3 87 158
181 343 188 375 273 524 426 752 247 370 507 650 657 706 14 5 17 0 17 -25 0
-50 -57 -178 -269 -596 -116 -229 -219 -448 -250 -530 -61 -160 -131 -427
-157 -595 -34 -221 -19 -495 31 -551 25 -27 85 -40 129 -28 46 13 202 164 288
279 60 81 76 106 313 490 263 425 285 461 285 472 0 5 -8 8 -17 6 -21 -4 -135
-174 -306 -458 -154 -255 -250 -400 -327 -495 -78 -95 -231 -240 -269 -253
-29 -10 -30 -9 -43 26 -19 55 -16 351 6 477 24 143 72 343 113 470 54 168 112
303 263 615 211 434 260 555 260 640 0 41 -4 52 -26 69 -37 29 -69 26 -134
-10z"/>
</g>
</svg>
